<svg width="24" height="24" xmlns="http://www.w3.org/2000/svg">

 <g>
  <title>background</title>
  <rect fill="none" id="canvas_background" height="402" width="582" y="-1" x="-1"/>
 </g>
 <g>
  <title>Layer 1</title>
  <path fill="#337ab7" id="svg_1" d="m20,14.554446c0,0 -2.3,5.5 -8,5.5s-8,-5.5 -8,-5.5s4.1,1 7.9,1s8.1,-1 8.1,-1z"/>
  <path fill="#337ab7" id="svg_2" d="m21.3,8.5c-4.2,-1.3 -7.5,-4.5 -9.3,-4.5c-1.8,0 -5.1,3.2 -9.3,4.5c-0.7,0.2 -1,1 -0.6,1.6c0.9,1.2 1.9,1.3 1.9,2.7c0,0 4,1 8,1s8,-1 8,-1c0,-1.4 1,-1.5 1.8,-2.8c0.4,-0.5 0.1,-1.3 -0.5,-1.5zm-9.3,3.5c-1.1,0 -2,-1.9 -2,-3c0,0 0.9,-1 2,-1s2,1 2,1c0,1.1 -0.9,3 -2,3z"/>
 </g>
</svg>